<mxfile host="app.diagrams.net" modified="2022-06-03T22:45:39.962Z" agent="5.0 (Windows NT 10.0; Win64; x64) AppleWebKit/537.36 (KHTML, like Gecko) Chrome/102.0.5005.63 Safari/537.36" etag="HloAifUzLy_aoq0HGkK6" version="19.0.0" type="github">
  <diagram id="FU1WX6aOHGpJxhGzK5Eq" name="Use Case Diagram">
    <mxGraphModel dx="1422" dy="786" grid="1" gridSize="10" guides="1" tooltips="1" connect="1" arrows="1" fold="1" page="1" pageScale="1" pageWidth="827" pageHeight="1169" math="0" shadow="0">
      <root>
        <mxCell id="0" />
        <mxCell id="1" parent="0" />
        <mxCell id="oVW4uMAh0V91xdYQDb78-5" value="Player" style="shape=umlActor;verticalLabelPosition=bottom;verticalAlign=top;html=1;outlineConnect=0;" vertex="1" parent="1">
          <mxGeometry x="50" y="480" width="50" height="100" as="geometry" />
        </mxCell>
        <mxCell id="oVW4uMAh0V91xdYQDb78-11" value="" style="rounded=0;whiteSpace=wrap;html=1;" vertex="1" parent="1">
          <mxGeometry x="170" y="200" width="460" height="690" as="geometry" />
        </mxCell>
        <mxCell id="oVW4uMAh0V91xdYQDb78-12" value="Bridge Game" style="text;html=1;strokeColor=none;fillColor=none;align=center;verticalAlign=middle;whiteSpace=wrap;rounded=0;fontStyle=1;fontSize=15;" vertex="1" parent="1">
          <mxGeometry x="325" y="220" width="150" height="30" as="geometry" />
        </mxCell>
        <mxCell id="oVW4uMAh0V91xdYQDb78-14" value="Choose Map" style="ellipse;whiteSpace=wrap;html=1;fontSize=15;" vertex="1" parent="1">
          <mxGeometry x="475" y="360" width="120" height="80" as="geometry" />
        </mxCell>
        <mxCell id="oVW4uMAh0V91xdYQDb78-15" value="Make a Move" style="ellipse;whiteSpace=wrap;html=1;fontSize=15;" vertex="1" parent="1">
          <mxGeometry x="440" y="560" width="120" height="80" as="geometry" />
        </mxCell>
        <mxCell id="oVW4uMAh0V91xdYQDb78-17" value="Play Game" style="ellipse;whiteSpace=wrap;html=1;fontSize=15;" vertex="1" parent="1">
          <mxGeometry x="230" y="360" width="120" height="80" as="geometry" />
        </mxCell>
        <mxCell id="oVW4uMAh0V91xdYQDb78-18" value="Exit Game" style="ellipse;whiteSpace=wrap;html=1;fontSize=15;" vertex="1" parent="1">
          <mxGeometry x="240" y="660" width="120" height="80" as="geometry" />
        </mxCell>
        <mxCell id="oVW4uMAh0V91xdYQDb78-19" value="Display Score" style="ellipse;whiteSpace=wrap;html=1;fontSize=15;" vertex="1" parent="1">
          <mxGeometry x="280" y="475" width="120" height="80" as="geometry" />
        </mxCell>
        <mxCell id="oVW4uMAh0V91xdYQDb78-20" value="&amp;lt;&amp;lt;include&amp;gt;&amp;gt;" style="html=1;verticalAlign=bottom;endArrow=open;dashed=1;endSize=8;rounded=0;fontSize=15;entryX=0;entryY=0.5;entryDx=0;entryDy=0;" edge="1" parent="1" source="oVW4uMAh0V91xdYQDb78-17" target="oVW4uMAh0V91xdYQDb78-14">
          <mxGeometry relative="1" as="geometry">
            <mxPoint x="450" y="510" as="sourcePoint" />
            <mxPoint x="370" y="510" as="targetPoint" />
          </mxGeometry>
        </mxCell>
        <mxCell id="oVW4uMAh0V91xdYQDb78-24" value="" style="endArrow=none;html=1;rounded=0;fontSize=15;entryX=0;entryY=0.5;entryDx=0;entryDy=0;" edge="1" parent="1" target="oVW4uMAh0V91xdYQDb78-17">
          <mxGeometry width="50" height="50" relative="1" as="geometry">
            <mxPoint x="110" y="500" as="sourcePoint" />
            <mxPoint x="150" y="460" as="targetPoint" />
          </mxGeometry>
        </mxCell>
        <mxCell id="oVW4uMAh0V91xdYQDb78-27" value="" style="endArrow=none;html=1;rounded=0;fontSize=15;entryX=0;entryY=0.5;entryDx=0;entryDy=0;" edge="1" parent="1" target="oVW4uMAh0V91xdYQDb78-19">
          <mxGeometry width="50" height="50" relative="1" as="geometry">
            <mxPoint x="110" y="510" as="sourcePoint" />
            <mxPoint x="240" y="410" as="targetPoint" />
          </mxGeometry>
        </mxCell>
        <mxCell id="oVW4uMAh0V91xdYQDb78-29" value="" style="endArrow=none;html=1;rounded=0;fontSize=15;entryX=0;entryY=0.5;entryDx=0;entryDy=0;" edge="1" parent="1" target="oVW4uMAh0V91xdYQDb78-18">
          <mxGeometry width="50" height="50" relative="1" as="geometry">
            <mxPoint x="110" y="540" as="sourcePoint" />
            <mxPoint x="230" y="660" as="targetPoint" />
          </mxGeometry>
        </mxCell>
        <mxCell id="oVW4uMAh0V91xdYQDb78-30" value="2...4" style="text;html=1;strokeColor=none;fillColor=none;align=center;verticalAlign=middle;whiteSpace=wrap;rounded=0;fontStyle=0;fontSize=11;rotation=-40;" vertex="1" parent="1">
          <mxGeometry x="90" y="470" width="50" height="30" as="geometry" />
        </mxCell>
        <mxCell id="oVW4uMAh0V91xdYQDb78-31" value="2...4" style="text;html=1;strokeColor=none;fillColor=none;align=center;verticalAlign=middle;whiteSpace=wrap;rounded=0;fontStyle=0;fontSize=11;rotation=0;" vertex="1" parent="1">
          <mxGeometry x="110" y="490" width="50" height="30" as="geometry" />
        </mxCell>
        <mxCell id="oVW4uMAh0V91xdYQDb78-32" value="2...4" style="text;html=1;strokeColor=none;fillColor=none;align=center;verticalAlign=middle;whiteSpace=wrap;rounded=0;fontStyle=0;fontSize=11;rotation=45;" vertex="1" parent="1">
          <mxGeometry x="110" y="525" width="50" height="30" as="geometry" />
        </mxCell>
        <mxCell id="oVW4uMAh0V91xdYQDb78-33" value="2...4" style="text;html=1;strokeColor=none;fillColor=none;align=center;verticalAlign=middle;whiteSpace=wrap;rounded=0;fontStyle=0;fontSize=11;rotation=60;" vertex="1" parent="1">
          <mxGeometry x="110" y="555" width="50" height="30" as="geometry" />
        </mxCell>
        <mxCell id="oVW4uMAh0V91xdYQDb78-36" value="&amp;lt;&amp;lt;include&amp;gt;&amp;gt;" style="html=1;verticalAlign=bottom;endArrow=open;dashed=1;endSize=8;rounded=0;fontSize=15;entryX=0.5;entryY=0;entryDx=0;entryDy=0;exitX=0.983;exitY=0.725;exitDx=0;exitDy=0;exitPerimeter=0;" edge="1" parent="1" source="oVW4uMAh0V91xdYQDb78-17" target="oVW4uMAh0V91xdYQDb78-15">
          <mxGeometry x="0.2596" y="24" relative="1" as="geometry">
            <mxPoint x="360" y="410" as="sourcePoint" />
            <mxPoint x="485" y="410" as="targetPoint" />
            <mxPoint as="offset" />
          </mxGeometry>
        </mxCell>
      </root>
    </mxGraphModel>
  </diagram>
</mxfile>
